<mxfile host="Electron" modified="2024-05-21T12:31:59.039Z" agent="Mozilla/5.0 (Windows NT 10.0; Win64; x64) AppleWebKit/537.36 (KHTML, like Gecko) draw.io/24.2.5 Chrome/120.0.6099.109 Electron/28.1.0 Safari/537.36" etag="zKo_7wsLB18lNhA4pKrL" version="24.2.5" type="device">
  <diagram name="Página-1" id="KzpQjxC8LFgBo6Gxh3wC">
    <mxGraphModel dx="819" dy="478" grid="1" gridSize="10" guides="1" tooltips="1" connect="1" arrows="1" fold="1" page="1" pageScale="1" pageWidth="827" pageHeight="1169" math="0" shadow="0">
      <root>
        <mxCell id="0" />
        <mxCell id="1" parent="0" />
        <mxCell id="c91HK1d8dGnZhrOa6l1V-1" value="" style="verticalLabelPosition=bottom;shadow=0;dashed=0;align=center;html=1;verticalAlign=top;shape=mxgraph.electrical.logic_gates.inverter_2" parent="1" vertex="1">
          <mxGeometry x="200" y="290" width="100" height="60" as="geometry" />
        </mxCell>
        <mxCell id="c91HK1d8dGnZhrOa6l1V-2" value="" style="verticalLabelPosition=bottom;shadow=0;dashed=0;align=center;html=1;verticalAlign=top;shape=mxgraph.electrical.logic_gates.inverter_2" parent="1" vertex="1">
          <mxGeometry x="350" y="290" width="100" height="60" as="geometry" />
        </mxCell>
        <mxCell id="c91HK1d8dGnZhrOa6l1V-3" value="" style="verticalLabelPosition=bottom;shadow=0;dashed=0;align=center;html=1;verticalAlign=top;shape=mxgraph.electrical.logic_gates.inverter_2" parent="1" vertex="1">
          <mxGeometry x="510" y="290" width="100" height="60" as="geometry" />
        </mxCell>
        <mxCell id="c91HK1d8dGnZhrOa6l1V-4" value="" style="endArrow=none;html=1;rounded=0;exitX=1;exitY=0.5;exitDx=0;exitDy=0;exitPerimeter=0;entryX=0;entryY=0.5;entryDx=0;entryDy=0;entryPerimeter=0;" parent="1" source="c91HK1d8dGnZhrOa6l1V-1" target="c91HK1d8dGnZhrOa6l1V-2" edge="1">
          <mxGeometry width="50" height="50" relative="1" as="geometry">
            <mxPoint x="390" y="450" as="sourcePoint" />
            <mxPoint x="440" y="400" as="targetPoint" />
          </mxGeometry>
        </mxCell>
        <mxCell id="c91HK1d8dGnZhrOa6l1V-5" value="" style="endArrow=none;html=1;rounded=0;entryX=0;entryY=0.5;entryDx=0;entryDy=0;entryPerimeter=0;" parent="1" target="c91HK1d8dGnZhrOa6l1V-3" edge="1">
          <mxGeometry width="50" height="50" relative="1" as="geometry">
            <mxPoint x="450" y="320" as="sourcePoint" />
            <mxPoint x="500" y="320" as="targetPoint" />
          </mxGeometry>
        </mxCell>
        <mxCell id="c91HK1d8dGnZhrOa6l1V-6" value="" style="endArrow=none;html=1;rounded=0;entryX=1;entryY=0.5;entryDx=0;entryDy=0;entryPerimeter=0;exitX=0;exitY=0.5;exitDx=0;exitDy=0;exitPerimeter=0;" parent="1" source="c91HK1d8dGnZhrOa6l1V-1" target="c91HK1d8dGnZhrOa6l1V-3" edge="1">
          <mxGeometry width="50" height="50" relative="1" as="geometry">
            <mxPoint x="300" y="420" as="sourcePoint" />
            <mxPoint x="420" y="260" as="targetPoint" />
            <Array as="points">
              <mxPoint x="200" y="370" />
              <mxPoint x="640" y="370" />
              <mxPoint x="640" y="320" />
            </Array>
          </mxGeometry>
        </mxCell>
        <mxCell id="c91HK1d8dGnZhrOa6l1V-7" value="&lt;font style=&quot;font-size: 14px;&quot;&gt;φ0&lt;/font&gt;" style="text;html=1;align=center;verticalAlign=middle;whiteSpace=wrap;rounded=0;" parent="1" vertex="1">
          <mxGeometry x="290" y="290" width="60" height="30" as="geometry" />
        </mxCell>
        <mxCell id="c91HK1d8dGnZhrOa6l1V-8" value="&lt;font style=&quot;font-size: 14px;&quot;&gt;φ1&lt;/font&gt;" style="text;html=1;align=center;verticalAlign=middle;whiteSpace=wrap;rounded=0;" parent="1" vertex="1">
          <mxGeometry x="450" y="290" width="60" height="30" as="geometry" />
        </mxCell>
        <mxCell id="c91HK1d8dGnZhrOa6l1V-9" value="&lt;font style=&quot;font-size: 14px;&quot;&gt;φ2&lt;/font&gt;" style="text;html=1;align=center;verticalAlign=middle;whiteSpace=wrap;rounded=0;" parent="1" vertex="1">
          <mxGeometry x="600" y="290" width="60" height="30" as="geometry" />
        </mxCell>
        <mxCell id="c91HK1d8dGnZhrOa6l1V-10" value="" style="verticalLabelPosition=bottom;shadow=0;dashed=0;align=center;html=1;verticalAlign=top;shape=mxgraph.electrical.logic_gates.logic_gate;operation=xor;rotation=90;" parent="1" vertex="1">
          <mxGeometry x="450" y="420" width="60" height="50" as="geometry" />
        </mxCell>
        <mxCell id="c91HK1d8dGnZhrOa6l1V-11" value="" style="endArrow=none;html=1;rounded=0;exitX=0;exitY=0.75;exitDx=0;exitDy=0;exitPerimeter=0;entryX=0.5;entryY=1;entryDx=0;entryDy=0;" parent="1" source="c91HK1d8dGnZhrOa6l1V-10" target="c91HK1d8dGnZhrOa6l1V-7" edge="1">
          <mxGeometry width="50" height="50" relative="1" as="geometry">
            <mxPoint x="500" y="380" as="sourcePoint" />
            <mxPoint x="550" y="330" as="targetPoint" />
            <Array as="points">
              <mxPoint x="320" y="415" />
            </Array>
          </mxGeometry>
        </mxCell>
        <mxCell id="c91HK1d8dGnZhrOa6l1V-12" value="" style="endArrow=none;html=1;rounded=0;exitX=0.202;exitY=0.487;exitDx=0;exitDy=0;exitPerimeter=0;entryX=0.5;entryY=1;entryDx=0;entryDy=0;" parent="1" source="c91HK1d8dGnZhrOa6l1V-10" target="c91HK1d8dGnZhrOa6l1V-8" edge="1">
          <mxGeometry width="50" height="50" relative="1" as="geometry">
            <mxPoint x="500" y="380" as="sourcePoint" />
            <mxPoint x="550" y="330" as="targetPoint" />
          </mxGeometry>
        </mxCell>
        <mxCell id="c91HK1d8dGnZhrOa6l1V-13" value="" style="endArrow=none;html=1;rounded=0;exitX=0;exitY=0.25;exitDx=0;exitDy=0;exitPerimeter=0;" parent="1" source="c91HK1d8dGnZhrOa6l1V-10" edge="1">
          <mxGeometry width="50" height="50" relative="1" as="geometry">
            <mxPoint x="480" y="400" as="sourcePoint" />
            <mxPoint x="640" y="370" as="targetPoint" />
            <Array as="points">
              <mxPoint x="640" y="415" />
            </Array>
          </mxGeometry>
        </mxCell>
        <mxCell id="c91HK1d8dGnZhrOa6l1V-15" value="" style="ellipse;whiteSpace=wrap;html=1;aspect=fixed;strokeColor=none;fillStyle=solid;fillColor=#000000;" parent="1" vertex="1">
          <mxGeometry x="635" y="365" width="10" height="10" as="geometry" />
        </mxCell>
        <mxCell id="c91HK1d8dGnZhrOa6l1V-16" value="" style="ellipse;whiteSpace=wrap;html=1;aspect=fixed;strokeColor=none;fillStyle=solid;fillColor=#000000;" parent="1" vertex="1">
          <mxGeometry x="475" y="316" width="10" height="10" as="geometry" />
        </mxCell>
        <mxCell id="c91HK1d8dGnZhrOa6l1V-17" value="" style="ellipse;whiteSpace=wrap;html=1;aspect=fixed;strokeColor=none;fillStyle=solid;fillColor=#000000;" parent="1" vertex="1">
          <mxGeometry x="315" y="316" width="10" height="10" as="geometry" />
        </mxCell>
        <mxCell id="c91HK1d8dGnZhrOa6l1V-18" value="" style="rounded=0;whiteSpace=wrap;html=1;" parent="1" vertex="1">
          <mxGeometry x="490" y="500" width="75" height="40" as="geometry" />
        </mxCell>
        <mxCell id="c91HK1d8dGnZhrOa6l1V-19" value="&lt;font style=&quot;font-size: 14px;&quot;&gt;3-bit counter&lt;/font&gt;" style="text;html=1;align=center;verticalAlign=middle;whiteSpace=wrap;rounded=0;" parent="1" vertex="1">
          <mxGeometry x="470.75" y="539" width="113.5" height="26" as="geometry" />
        </mxCell>
        <mxCell id="c91HK1d8dGnZhrOa6l1V-20" value="" style="triangle;whiteSpace=wrap;html=1;" parent="1" vertex="1">
          <mxGeometry x="490" y="515" width="10" height="10" as="geometry" />
        </mxCell>
        <mxCell id="c91HK1d8dGnZhrOa6l1V-21" value="" style="endArrow=none;html=1;rounded=0;exitX=0.973;exitY=0.498;exitDx=0;exitDy=0;exitPerimeter=0;entryX=0;entryY=0.5;entryDx=0;entryDy=0;" parent="1" source="c91HK1d8dGnZhrOa6l1V-10" target="c91HK1d8dGnZhrOa6l1V-20" edge="1">
          <mxGeometry width="50" height="50" relative="1" as="geometry">
            <mxPoint x="540" y="540" as="sourcePoint" />
            <mxPoint x="590" y="490" as="targetPoint" />
            <Array as="points">
              <mxPoint x="480" y="520" />
            </Array>
          </mxGeometry>
        </mxCell>
        <mxCell id="UrRYzKj0RrueYkRqndIx-1" value="" style="rounded=0;whiteSpace=wrap;html=1;" vertex="1" parent="1">
          <mxGeometry x="620" y="505" width="40" height="60" as="geometry" />
        </mxCell>
        <mxCell id="UrRYzKj0RrueYkRqndIx-2" value="Q" style="text;html=1;align=center;verticalAlign=middle;whiteSpace=wrap;rounded=0;" vertex="1" parent="1">
          <mxGeometry x="640" y="505" width="20" height="30" as="geometry" />
        </mxCell>
        <mxCell id="UrRYzKj0RrueYkRqndIx-3" value="D" style="text;html=1;align=center;verticalAlign=middle;whiteSpace=wrap;rounded=0;" vertex="1" parent="1">
          <mxGeometry x="620" y="505" width="20" height="30" as="geometry" />
        </mxCell>
        <mxCell id="UrRYzKj0RrueYkRqndIx-4" value="" style="triangle;whiteSpace=wrap;html=1;" vertex="1" parent="1">
          <mxGeometry x="620" y="540" width="10" height="10" as="geometry" />
        </mxCell>
        <mxCell id="UrRYzKj0RrueYkRqndIx-6" value="" style="endArrow=none;html=1;rounded=0;exitX=1;exitY=0.5;exitDx=0;exitDy=0;entryX=0;entryY=0.5;entryDx=0;entryDy=0;" edge="1" parent="1" source="c91HK1d8dGnZhrOa6l1V-18" target="UrRYzKj0RrueYkRqndIx-3">
          <mxGeometry width="50" height="50" relative="1" as="geometry">
            <mxPoint x="460" y="600" as="sourcePoint" />
            <mxPoint x="510" y="550" as="targetPoint" />
          </mxGeometry>
        </mxCell>
        <mxCell id="UrRYzKj0RrueYkRqndIx-7" value="" style="endArrow=none;html=1;rounded=0;exitX=0;exitY=0.5;exitDx=0;exitDy=0;" edge="1" parent="1" source="UrRYzKj0RrueYkRqndIx-4">
          <mxGeometry width="50" height="50" relative="1" as="geometry">
            <mxPoint x="460" y="600" as="sourcePoint" />
            <mxPoint x="600" y="570" as="targetPoint" />
            <Array as="points">
              <mxPoint x="600" y="545" />
            </Array>
          </mxGeometry>
        </mxCell>
        <mxCell id="UrRYzKj0RrueYkRqndIx-8" value="&lt;font style=&quot;font-size: 14px;&quot;&gt;Fs&lt;/font&gt;" style="text;html=1;align=center;verticalAlign=middle;whiteSpace=wrap;rounded=0;" vertex="1" parent="1">
          <mxGeometry x="587.5" y="570" width="23.5" height="16" as="geometry" />
        </mxCell>
        <mxCell id="UrRYzKj0RrueYkRqndIx-15" value="" style="endArrow=classic;html=1;rounded=0;" edge="1" parent="1">
          <mxGeometry width="50" height="50" relative="1" as="geometry">
            <mxPoint x="660" y="519.76" as="sourcePoint" />
            <mxPoint x="700" y="519.76" as="targetPoint" />
          </mxGeometry>
        </mxCell>
        <mxCell id="UrRYzKj0RrueYkRqndIx-16" value="&lt;font style=&quot;font-size: 14px;&quot;&gt;R(t)&lt;/font&gt;" style="text;html=1;align=center;verticalAlign=middle;whiteSpace=wrap;rounded=0;" vertex="1" parent="1">
          <mxGeometry x="702" y="511" width="23.5" height="16" as="geometry" />
        </mxCell>
      </root>
    </mxGraphModel>
  </diagram>
</mxfile>
